<svg width="151" height="151" viewBox="0 0 151 151" fill="none" xmlns="http://www.w3.org/2000/svg">
<path d="M75.3242 129.858C56.5742 129.858 39.9992 120.258 30.3242 105.858C30.5492 90.8584 60.3242 82.6084 75.3242 82.6084C90.3242 82.6084 120.099 90.8584 120.324 105.858C110.649 120.258 94.0742 129.858 75.3242 129.858ZM75.3242 23.3584C81.2916 23.3584 87.0146 25.7289 91.2341 29.9485C95.4537 34.1681 97.8242 39.891 97.8242 45.8584C97.8242 51.8258 95.4537 57.5487 91.2341 61.7683C87.0146 65.9879 81.2916 68.3584 75.3242 68.3584C69.3568 68.3584 63.6339 65.9879 59.4143 61.7683C55.1947 57.5487 52.8242 51.8258 52.8242 45.8584C52.8242 39.891 55.1947 34.1681 59.4143 29.9485C63.6339 25.7289 69.3568 23.3584 75.3242 23.3584ZM75.3242 0.858398C65.4751 0.858398 55.7224 2.79833 46.623 6.56743C37.5235 10.3365 29.2556 15.861 22.2912 22.8254C8.22598 36.8906 0.324219 55.9672 0.324219 75.8584C0.324219 95.7496 8.22598 114.826 22.2912 128.891C29.2556 135.856 37.5235 141.38 46.623 145.149C55.7224 148.918 65.4751 150.858 75.3242 150.858C95.2155 150.858 114.292 142.957 128.357 128.891C142.422 114.826 150.324 95.7496 150.324 75.8584C150.324 34.3834 116.574 0.858398 75.3242 0.858398Z" fill="#1A201B"/>
</svg>
