<svg width="139" height="31" viewBox="0 0 139 31" fill="none" xmlns="http://www.w3.org/2000/svg">
<rect x="3.69986" y="3.47721" width="131.294" height="23.6003" fill="#1A201B"/>
<path d="M44.7794 18.6946C44.7134 19.3548 44.3503 19.7124 43.6901 19.7674C43.382 19.7674 43.1124 19.6684 42.8814 19.4703C42.6613 19.2612 42.5513 19.0027 42.5513 18.6946V10.9043C42.5623 10.5962 42.6778 10.3431 42.8979 10.1451C43.1179 9.93599 43.382 9.83146 43.6901 9.83146H48.867C49.8353 9.86447 50.567 10.079 51.0621 10.4751C51.5573 10.8603 51.9149 11.3004 52.1349 11.7955C52.355 12.2907 52.465 12.7913 52.465 13.2975C52.465 13.8256 52.355 14.3373 52.1349 14.8324C51.9259 15.3276 51.5683 15.7732 51.0621 16.1693C50.567 16.5544 49.9343 16.7415 49.1641 16.7305H46.76C46.4519 16.7305 46.1933 16.6205 45.9843 16.4004C45.7642 16.1913 45.6542 15.9328 45.6542 15.6247C45.6542 15.3166 45.7587 15.058 45.9678 14.8489C46.1878 14.6289 46.4519 14.5188 46.76 14.5188H49.2631C49.4721 14.5188 49.6427 14.4528 49.7747 14.3208C49.9178 14.1777 50.0223 14.0182 50.0883 13.8421C50.1544 13.6551 50.1874 13.468 50.1874 13.281C50.1874 13.1049 50.1544 12.9289 50.0883 12.7528C50.0223 12.5658 49.9178 12.4062 49.7747 12.2742C49.6427 12.1311 49.4721 12.0541 49.2631 12.0431H45.2086C44.9225 12.0541 44.7794 12.1972 44.7794 12.4722V18.6946Z" fill="#E1E1E1"/>
<path d="M55.6845 9.56738C55.9816 9.57839 56.2347 9.68842 56.4437 9.89748C56.6528 10.0955 56.7628 10.3431 56.7738 10.6402V12.0761H59.8471C60.6173 12.0871 61.25 12.3072 61.7452 12.7363C62.2513 13.1544 62.6089 13.6276 62.818 14.1557C63.038 14.6949 63.1481 15.2506 63.1481 15.8227H63.1646V18.6946C63.1646 19.0027 63.049 19.2612 62.818 19.4703C62.5979 19.6684 62.3338 19.7674 62.0257 19.7674C61.3656 19.7124 61.0024 19.3548 60.9364 18.6946V15.8062C60.9364 15.5972 60.8924 15.3771 60.8044 15.146C60.7274 14.915 60.6118 14.7169 60.4578 14.5518C60.3037 14.3758 60.1222 14.2878 59.9131 14.2878H56.7738V18.7276C56.7078 19.3878 56.3447 19.7454 55.6845 19.8004C55.3764 19.8004 55.1068 19.7014 54.8758 19.5033C54.6557 19.2942 54.5457 19.0357 54.5457 18.7276V10.6402C54.5567 10.3321 54.6722 10.079 54.8923 9.88098C55.1123 9.67191 55.3764 9.56738 55.6845 9.56738Z" fill="#E1E1E1"/>
<path d="M69.0322 19.5693C68.0639 19.5363 67.3322 19.3107 66.837 18.8926C66.3419 18.4635 65.9843 17.9849 65.7642 17.4567C65.5442 16.9175 65.4341 16.3729 65.4341 15.8227C65.4341 15.2506 65.5387 14.7004 65.7477 14.1722C65.9678 13.6331 66.3254 13.1544 66.8205 12.7363C67.3267 12.3072 67.9649 12.0871 68.7351 12.0761H71.4748C72.2451 12.0871 72.8778 12.3072 73.3729 12.7363C73.879 13.1544 74.2367 13.6331 74.4457 14.1722C74.6658 14.7004 74.7758 15.2506 74.7758 15.8227C74.7758 16.3729 74.6658 16.9175 74.4457 17.4567C74.2257 17.9849 73.868 18.4635 73.3729 18.8926C72.8778 19.3107 72.146 19.5363 71.1778 19.5693H69.0322ZM68.6691 14.2878C68.46 14.2878 68.2785 14.3758 68.1244 14.5518C67.9704 14.7169 67.8548 14.915 67.7778 15.146C67.7118 15.3661 67.6788 15.5862 67.6788 15.8062C67.6788 16.0373 67.7118 16.2684 67.7778 16.4994C67.8548 16.7195 67.9704 16.9175 68.1244 17.0936C68.2785 17.2586 68.46 17.3467 68.6691 17.3577H71.5409C71.7499 17.3467 71.9315 17.2586 72.0855 17.0936C72.2396 16.9175 72.3496 16.7195 72.4156 16.4994C72.4926 16.2684 72.5312 16.0373 72.5312 15.8062C72.5312 15.5862 72.4926 15.3661 72.4156 15.146C72.3496 14.915 72.2396 14.7169 72.0855 14.5518C71.9315 14.3758 71.7499 14.2878 71.5409 14.2878H68.6691Z" fill="#E1E1E1"/>
<path d="M80.6962 9.56738C81.0043 9.56738 81.2684 9.67191 81.4884 9.88098C81.7085 10.079 81.824 10.3321 81.835 10.6402V12.0761L85.4104 12.0431C85.7185 12.0431 85.9825 12.1476 86.2026 12.3567C86.4117 12.5768 86.5162 12.8408 86.5162 13.1489C86.5162 13.457 86.4062 13.7211 86.1861 13.9412C85.977 14.1502 85.7185 14.2548 85.4104 14.2548L81.835 14.2878V14.6179C81.824 15.069 81.8516 15.4871 81.9176 15.8722C81.9946 16.2463 82.1706 16.5819 82.4457 16.879C82.7208 17.1761 83.0674 17.3357 83.4855 17.3577L85.4764 17.3247C85.7845 17.3357 86.0376 17.4512 86.2356 17.6713C86.4447 17.8913 86.5492 18.1554 86.5492 18.4635C86.5382 18.7606 86.4282 19.0137 86.2191 19.2227C86.0211 19.4208 85.7735 19.5253 85.4764 19.5363L82.9244 19.5693C82.1541 19.5253 81.516 19.2667 81.0098 18.7936C80.5147 18.3095 80.1571 17.7208 79.937 17.0276C79.7279 16.3344 79.6179 15.5972 79.6069 14.8159V14.2878H77.7088C77.4007 14.2878 77.1422 14.1777 76.9331 13.9577C76.713 13.7486 76.603 13.49 76.603 13.1819C76.603 12.8739 76.7075 12.6153 76.9166 12.4062C77.1367 12.1862 77.4007 12.0761 77.7088 12.0761H79.6069V10.6402C79.6179 10.3431 79.7279 10.0955 79.937 9.89748C80.1461 9.68842 80.3991 9.57839 80.6962 9.56738Z" fill="#E1E1E1"/>
<path d="M92.3125 19.5693C91.3442 19.5363 90.6125 19.3107 90.1173 18.8926C89.6222 18.4635 89.2646 17.9849 89.0445 17.4567C88.8244 16.9175 88.7144 16.3729 88.7144 15.8227C88.7144 15.2506 88.8189 14.7004 89.028 14.1722C89.2481 13.6331 89.6057 13.1544 90.1008 12.7363C90.607 12.3072 91.2452 12.0871 92.0154 12.0761H94.7551C95.5254 12.0871 96.158 12.3072 96.6532 12.7363C97.1593 13.1544 97.5169 13.6331 97.726 14.1722C97.9461 14.7004 98.0561 15.2506 98.0561 15.8227C98.0561 16.3729 97.9461 16.9175 97.726 17.4567C97.5059 17.9849 97.1483 18.4635 96.6532 18.8926C96.158 19.3107 95.4263 19.5363 94.458 19.5693H92.3125ZM91.9494 14.2878C91.7403 14.2878 91.5588 14.3758 91.4047 14.5518C91.2507 14.7169 91.1351 14.915 91.0581 15.146C90.9921 15.3661 90.9591 15.5862 90.9591 15.8062C90.9591 16.0373 90.9921 16.2684 91.0581 16.4994C91.1351 16.7195 91.2507 16.9175 91.4047 17.0936C91.5588 17.2586 91.7403 17.3467 91.9494 17.3577H94.8211C95.0302 17.3467 95.2118 17.2586 95.3658 17.0936C95.5199 16.9175 95.6299 16.7195 95.6959 16.4994C95.7729 16.2684 95.8114 16.0373 95.8114 15.8062C95.8114 15.5862 95.7729 15.3661 95.6959 15.146C95.6299 14.915 95.5199 14.7169 95.3658 14.5518C95.2118 14.3758 95.0302 14.2878 94.8211 14.2878H91.9494Z" fill="#E1E1E1"/>
<path d="M102.11 20.0315C101.67 20.0315 101.301 19.8774 101.004 19.5693C100.718 19.2612 100.575 18.8761 100.575 18.414C100.575 17.9518 100.718 17.5667 101.004 17.2586C101.301 16.9506 101.67 16.7965 102.11 16.7965C102.55 16.7965 102.919 16.9506 103.216 17.2586C103.513 17.5667 103.662 17.9518 103.662 18.414C103.662 18.8761 103.513 19.2612 103.216 19.5693C102.919 19.8774 102.55 20.0315 102.11 20.0315Z" fill="#E1E1E1"/>
<path d="M107.457 9.56738C107.755 9.57839 108.008 9.68842 108.217 9.89748C108.426 10.0955 108.536 10.3431 108.547 10.6402V18.7276C108.481 19.3878 108.118 19.7454 107.457 19.8004C107.149 19.8004 106.88 19.7014 106.649 19.5033C106.429 19.2942 106.319 19.0357 106.319 18.7276V10.6402C106.33 10.3321 106.445 10.079 106.665 9.88098C106.885 9.67191 107.149 9.56738 107.457 9.56738Z" fill="#E1E1E1"/>
<path d="M129.466 14.7169C129.466 14.4418 129.323 14.2988 129.037 14.2878H125.311C125.102 14.2988 124.921 14.3923 124.767 14.5684C124.613 14.7334 124.497 14.9315 124.42 15.1625C124.354 15.3826 124.321 15.6082 124.321 15.8392C124.321 16.0593 124.354 16.2849 124.42 16.5159C124.497 16.736 124.613 16.9341 124.767 17.1101C124.921 17.2752 125.102 17.3577 125.311 17.3577H127.486C127.794 17.3577 128.052 17.4677 128.261 17.6878C128.481 17.8968 128.591 18.1554 128.591 18.4635C128.591 18.7716 128.481 19.0302 128.261 19.2392C128.052 19.4593 127.794 19.5693 127.486 19.5693H125.377C124.607 19.5583 123.969 19.3438 123.463 18.9256C122.968 18.4965 122.61 18.0179 122.39 17.4897C122.181 16.9506 122.076 16.3949 122.076 15.8227C122.076 15.2726 122.186 14.7334 122.406 14.2052C122.627 13.6661 122.984 13.1874 123.479 12.7693C123.974 12.3402 124.706 12.1091 125.674 12.0761H130.555C130.864 12.0761 131.128 12.1807 131.348 12.3897C131.568 12.5878 131.683 12.8408 131.694 13.1489V18.3645C131.694 19.2447 131.573 20.0755 131.331 20.8567C131.111 21.5499 130.748 22.1331 130.242 22.6062C129.747 23.0904 129.114 23.3544 128.344 23.3985H124.684C124.387 23.3874 124.134 23.2774 123.925 23.0684C123.727 22.8703 123.622 22.6227 123.611 22.3256C123.611 22.0175 123.71 21.7535 123.908 21.5334C124.117 21.3133 124.376 21.1978 124.684 21.1868H127.783C128.201 21.1648 128.547 21.0052 128.822 20.7082C129.098 20.4111 129.274 20.0645 129.351 19.6684C129.428 19.2722 129.466 18.7606 129.466 18.1334V14.7169Z" fill="#E1E1E1"/>
<path d="M114.366 19.7323C113.397 19.6993 112.666 19.4737 112.17 19.0556C111.675 18.6265 111.318 18.1478 111.098 17.6197C110.878 17.0805 110.768 16.5359 110.768 15.9857C110.768 15.4135 110.872 14.8634 111.081 14.3352C111.301 13.7961 111.659 13.3174 112.154 12.8993C112.66 12.4702 113.298 12.2501 114.069 12.2391H116.808C117.578 12.2501 118.211 12.4702 118.706 12.8993C119.212 13.3174 119.57 13.7961 119.779 14.3352C119.999 14.8634 120.109 15.4135 120.109 15.9857C120.109 16.5359 119.999 17.0805 119.779 17.6197C119.559 18.1478 119.201 18.6265 118.706 19.0556C118.211 19.4737 117.479 19.6993 116.511 19.7323H114.366ZM114.003 14.4507C113.793 14.4507 113.612 14.5388 113.458 14.7148C113.304 14.8799 113.188 15.0779 113.111 15.309C113.045 15.5291 113.012 15.7491 113.012 15.9692C113.012 16.2003 113.045 16.4313 113.111 16.6624C113.188 16.8825 113.304 17.0805 113.458 17.2566C113.612 17.4216 113.793 17.5096 114.003 17.5206H116.874C117.083 17.5096 117.265 17.4216 117.419 17.2566C117.573 17.0805 117.683 16.8825 117.749 16.6624C117.826 16.4313 117.865 16.2003 117.865 15.9692C117.865 15.7491 117.826 15.5291 117.749 15.309C117.683 15.0779 117.573 14.8799 117.419 14.7148C117.265 14.5388 117.083 14.4507 116.874 14.4507H114.003Z" fill="#E1E1E1"/>
<path d="M22.097 18.7419C21.3991 18.7419 20.8146 18.4977 20.3435 18.0091C19.8899 17.5206 19.6631 16.9099 19.6631 16.1771C19.6631 15.4443 19.8899 14.8336 20.3435 14.3451C20.8146 13.8566 21.3991 13.6123 22.097 13.6123C22.7949 13.6123 23.3794 13.8566 23.8505 14.3451C24.3216 14.8336 24.5572 15.4443 24.5572 16.1771C24.5572 16.9099 24.3216 17.5206 23.8505 18.0091C23.3794 18.4977 22.7949 18.7419 22.097 18.7419Z" fill="#E1E1E1"/>
<path d="M23.0017 16.1774C22.7461 16.1774 22.5321 16.0879 22.3596 15.909C22.1934 15.7301 22.1104 15.5065 22.1104 15.2381C22.1104 14.9697 22.1934 14.7461 22.3596 14.5672C22.5321 14.3883 22.7461 14.2988 23.0017 14.2988C23.2573 14.2988 23.4714 14.3883 23.6439 14.5672C23.8164 14.7461 23.9027 14.9697 23.9027 15.2381C23.9027 15.5065 23.8164 15.7301 23.6439 15.909C23.4714 16.0879 23.2573 16.1774 23.0017 16.1774Z" fill="#1A201B"/>
<path d="M9.49258 7.25598C9.61362 7.04692 9.78417 6.90388 10.0042 6.82686C10.1033 6.79385 10.2023 6.77734 10.3013 6.77734C10.4334 6.77734 10.5599 6.80485 10.6809 6.85987C10.89 6.94789 11.0275 7.09644 11.0936 7.3055C11.1266 7.39352 11.1431 7.48155 11.1431 7.56958C11.1431 7.69061 11.1156 7.81165 11.0605 7.93268C9.94922 10.1553 9.39355 12.6091 9.39355 15.2938C9.39355 17.9566 9.94922 20.3994 11.0605 22.622C11.1156 22.743 11.1431 22.8641 11.1431 22.9851C11.1431 23.0731 11.1266 23.1612 11.0936 23.2492C11.0275 23.4582 10.89 23.6068 10.6809 23.6948C10.5599 23.7498 10.4334 23.7773 10.3013 23.7773C10.2023 23.7773 10.1033 23.7608 10.0042 23.7278C9.77316 23.6508 9.60261 23.5078 9.49258 23.2987C7.35193 20.8701 6.99984 18.1327 6.99984 15.2938C6.99984 12.466 7.35193 9.85585 9.49258 7.25598Z" fill="#E1E1E1"/>
<path d="M34.2574 7.25598C34.1364 7.04692 33.9658 6.90388 33.7458 6.82686C33.6467 6.79385 33.5477 6.77734 33.4487 6.77734C33.3166 6.77734 33.1901 6.80485 33.0691 6.85987C32.86 6.94789 32.7225 7.09644 32.6564 7.3055C32.6234 7.39352 32.6069 7.48155 32.6069 7.56958C32.6069 7.69061 32.6344 7.81165 32.6895 7.93268C33.8008 10.1553 34.3564 12.6091 34.3564 15.2938C34.3564 17.9566 33.8008 20.3994 32.6895 22.622C32.6344 22.743 32.6069 22.8641 32.6069 22.9851C32.6069 23.0731 32.6234 23.1612 32.6564 23.2492C32.7225 23.4582 32.86 23.6068 33.0691 23.6948C33.1901 23.7498 33.3166 23.7773 33.4487 23.7773C33.5477 23.7773 33.6467 23.7608 33.7458 23.7278C33.9768 23.6508 34.1474 23.5078 34.2574 23.2987C36.3981 20.8701 36.7502 18.1327 36.7502 15.2938C36.7502 12.466 36.3981 9.85585 34.2574 7.25598Z" fill="#E1E1E1"/>
<path d="M13.4111 21.1049V11.983H18.6477V9.44922H25.2357V11.983H30.8102V21.1049H13.4111Z" stroke="#E1E1E1" stroke-width="2.30626" stroke-linejoin="round"/>
<rect x="3.69986" y="3.47721" width="131.294" height="23.6003" stroke="#1A201B" stroke-width="6.60028"/>
</svg>
