<svg width="123" height="49" viewBox="0 0 123 49" fill="none" xmlns="http://www.w3.org/2000/svg">
<path d="M21.5943 28.9521V23.901C21.5943 21.7678 23.3236 20.0385 25.4568 20.0385C27.59 20.0385 29.3194 21.7678 29.3194 23.901V28.9521H31.4487C33.4999 28.9521 35.1627 30.6149 35.1627 32.6661C35.1627 34.7173 33.4999 36.3801 31.4487 36.3801H29.3194V44.6995C29.3194 46.8327 27.59 48.562 25.4568 48.562C23.3236 48.562 21.5943 46.8327 21.5943 44.6995V36.3801H6.43273C3.31959 36.3801 0.795898 33.8564 0.795898 30.7433C0.795898 29.7016 1.08455 28.6803 1.62982 27.7927L17.5069 1.94831C18.2005 0.81937 19.4304 0.131463 20.7554 0.131463C23.7291 0.131463 25.558 3.38452 24.0126 5.92517L10.0066 28.9521H21.5943Z" fill="#1A201B"/>
<path d="M108.79 28.9456V23.8946C108.79 21.7613 110.519 20.032 112.653 20.032C114.786 20.032 116.515 21.7613 116.515 23.8946V28.9456H118.644C120.696 28.9456 122.358 30.6084 122.358 32.6596C122.358 34.7108 120.696 36.3736 118.644 36.3736H116.515V44.6929C116.515 46.8262 114.786 48.5555 112.653 48.5555C110.519 48.5555 108.79 46.8262 108.79 44.6929V36.3736H93.6284C90.5153 36.3736 87.9916 33.8499 87.9916 30.7368C87.9916 29.6951 88.2803 28.6738 88.8256 27.7862L104.703 1.94185C105.396 0.812905 106.626 0.125 107.951 0.125C110.925 0.125 112.754 3.37806 111.208 5.91871L97.2023 28.9456H108.79Z" fill="#1A201B"/>
<path d="M50.8053 24.8183C50.8053 29.9265 51.7068 33.9529 53.5096 36.8977C55.3125 39.8424 58.0169 41.3147 61.6227 41.3147C65.2284 41.3147 67.9027 39.8724 69.6455 36.9878C71.3883 34.0431 72.2597 29.9866 72.2597 24.8183C72.2597 19.65 71.3883 15.6235 69.6455 12.7389C67.9027 9.7942 65.2284 8.32184 61.6227 8.32184C57.8366 8.32184 55.1322 9.8543 53.5096 12.9192C51.7068 15.924 50.8053 19.8904 50.8053 24.8183ZM43.5938 24.8183C43.5938 17.7269 45.1262 12.168 48.1911 8.14155C51.256 4.055 55.7332 2.01172 61.6227 2.01172C67.5121 2.01172 71.9592 4.02495 74.964 8.05141C78.029 12.0779 79.5614 17.6668 79.5614 24.8183C79.5614 31.9698 78.029 37.5888 74.964 41.6753C71.9592 45.7018 67.5121 47.715 61.6227 47.715C55.613 47.715 51.1058 45.6116 48.101 41.4049C45.0962 37.3183 43.5938 31.7895 43.5938 24.8183Z" fill="#1A201B"/>
</svg>
