<svg width="163" height="23" viewBox="0 0 163 23" fill="none" xmlns="http://www.w3.org/2000/svg">
<path d="M49.409 16.1918C49.323 17.0517 48.8501 17.5175 47.9902 17.5891C47.5889 17.5891 47.2377 17.4601 46.9368 17.2022C46.6502 16.9299 46.5068 16.5931 46.5068 16.1918V6.045C46.5212 5.64372 46.6716 5.31409 46.9583 5.05612C47.2449 4.78382 47.5889 4.64767 47.9902 4.64767H54.733C55.9942 4.69066 56.9472 4.97013 57.5921 5.48607C58.2371 5.98767 58.7028 6.56094 58.9895 7.20586C59.2761 7.85078 59.4194 8.50287 59.4194 9.16213C59.4194 9.85004 59.2761 10.5165 58.9895 11.1614C58.7172 11.8063 58.2514 12.3867 57.5921 12.9027C56.9472 13.4043 56.1231 13.6479 55.1199 13.6336H51.9887C51.5874 13.6336 51.2506 13.4903 50.9783 13.2036C50.6917 12.9313 50.5483 12.5945 50.5483 12.1933C50.5483 11.792 50.6845 11.4552 50.9568 11.1829C51.2434 10.8963 51.5874 10.7529 51.9887 10.7529H55.2489C55.5212 10.7529 55.7434 10.6669 55.9153 10.495C56.1016 10.3087 56.2378 10.1008 56.3238 9.87154C56.4098 9.6279 56.4528 9.38427 56.4528 9.14063C56.4528 8.91132 56.4098 8.68202 56.3238 8.45271C56.2378 8.20907 56.1016 8.00127 55.9153 7.82929C55.7434 7.64298 55.5212 7.54265 55.2489 7.52832H49.9679C49.5953 7.54265 49.409 7.72897 49.409 8.08726V16.1918Z" fill="#1A201B"/>
<path d="M63.6127 4.30371C63.9997 4.31804 64.3293 4.46136 64.6016 4.73366C64.8739 4.99163 65.0172 5.31409 65.0316 5.70104V7.57132H69.0345C70.0377 7.58565 70.8618 7.87228 71.5067 8.43121C72.1659 8.97582 72.6317 9.59207 72.904 10.28C73.1907 10.9822 73.334 11.706 73.334 12.4512H73.3555V16.1918C73.3555 16.5931 73.205 16.9299 72.904 17.2022C72.6174 17.4601 72.2734 17.5891 71.8721 17.5891C71.0123 17.5175 70.5393 17.0517 70.4533 16.1918V12.4297C70.4533 12.1574 70.396 11.8708 70.2813 11.5698C70.181 11.2689 70.0305 11.0109 69.8299 10.7959C69.6293 10.5666 69.3928 10.452 69.1205 10.452H65.0316V16.2348C64.9456 17.0947 64.4726 17.5604 63.6127 17.6321C63.2114 17.6321 62.8603 17.5031 62.5594 17.2452C62.2727 16.9729 62.1294 16.6361 62.1294 16.2348V5.70104C62.1437 5.29976 62.2942 4.97013 62.5809 4.71216C62.8675 4.43986 63.2114 4.30371 63.6127 4.30371Z" fill="#1A201B"/>
<path d="M80.998 17.3311C79.7368 17.2881 78.7837 16.9944 78.1388 16.4497C77.4939 15.8908 77.0281 15.2674 76.7415 14.5795C76.4549 13.8772 76.3115 13.1678 76.3115 12.4512C76.3115 11.706 76.4477 10.9894 76.72 10.3015C77.0066 9.59924 77.4724 8.97582 78.1173 8.43121C78.7766 7.87228 79.6078 7.58565 80.611 7.57132H84.1795C85.1827 7.58565 86.0068 7.87228 86.6517 8.43121C87.311 8.97582 87.7767 9.59924 88.049 10.3015C88.3357 10.9894 88.479 11.706 88.479 12.4512C88.479 13.1678 88.3357 13.8772 88.049 14.5795C87.7624 15.2674 87.2966 15.8908 86.6517 16.4497C86.0068 16.9944 85.0537 17.2881 83.7925 17.3311H80.998ZM80.525 10.452C80.2527 10.452 80.0163 10.5666 79.8156 10.7959C79.615 11.0109 79.4645 11.2689 79.3642 11.5698C79.2782 11.8565 79.2352 12.1431 79.2352 12.4297C79.2352 12.7307 79.2782 13.0317 79.3642 13.3326C79.4645 13.6193 79.615 13.8772 79.8156 14.1065C80.0163 14.3215 80.2527 14.4362 80.525 14.4505H84.2655C84.5378 14.4362 84.7743 14.3215 84.9749 14.1065C85.1755 13.8772 85.3189 13.6193 85.4049 13.3326C85.5052 13.0317 85.5553 12.7307 85.5553 12.4297C85.5553 12.1431 85.5052 11.8565 85.4049 11.5698C85.3189 11.2689 85.1755 11.0109 84.9749 10.7959C84.7743 10.5666 84.5378 10.452 84.2655 10.452H80.525Z" fill="#1A201B"/>
<path d="M96.1902 4.30371C96.5915 4.30371 96.9355 4.43986 97.2221 4.71216C97.5088 4.97013 97.6592 5.29976 97.6736 5.70104V7.57132L102.33 7.52832C102.732 7.52832 103.076 7.66447 103.362 7.93677C103.635 8.22341 103.771 8.56736 103.771 8.96865C103.771 9.36993 103.627 9.71389 103.341 10.0005C103.068 10.2728 102.732 10.409 102.33 10.409L97.6736 10.452V10.8819C97.6592 11.4695 97.6951 12.0141 97.7811 12.5157C97.8814 13.003 98.1107 13.4401 98.469 13.8271C98.8273 14.214 99.2787 14.4218 99.8233 14.4505L102.416 14.4075C102.818 14.4218 103.147 14.5723 103.405 14.8589C103.678 15.1456 103.814 15.4895 103.814 15.8908C103.799 16.2778 103.656 16.6074 103.384 16.8797C103.126 17.1377 102.803 17.2738 102.416 17.2881L99.0924 17.3311C98.0892 17.2738 97.258 16.937 96.5987 16.3208C95.9538 15.6902 95.488 14.9234 95.2014 14.0205C94.9291 13.1177 94.7858 12.1574 94.7714 11.1399V10.452H92.2992C91.8979 10.452 91.5611 10.3087 91.2888 10.022C91.0022 9.74972 90.8589 9.41293 90.8589 9.01164C90.8589 8.61036 90.995 8.27357 91.2673 8.00127C91.554 7.71463 91.8979 7.57132 92.2992 7.57132H94.7714V5.70104C94.7858 5.31409 94.9291 4.99163 95.2014 4.73366C95.4737 4.46136 95.8033 4.31804 96.1902 4.30371Z" fill="#1A201B"/>
<path d="M111.32 17.3311C110.059 17.2881 109.106 16.9944 108.461 16.4497C107.816 15.8908 107.35 15.2674 107.064 14.5795C106.777 13.8772 106.634 13.1678 106.634 12.4512C106.634 11.706 106.77 10.9894 107.042 10.3015C107.329 9.59924 107.795 8.97582 108.44 8.43121C109.099 7.87228 109.93 7.58565 110.933 7.57132H114.502C115.505 7.58565 116.329 7.87228 116.974 8.43121C117.633 8.97582 118.099 9.59924 118.371 10.3015C118.658 10.9894 118.801 11.706 118.801 12.4512C118.801 13.1678 118.658 13.8772 118.371 14.5795C118.085 15.2674 117.619 15.8908 116.974 16.4497C116.329 16.9944 115.376 17.2881 114.115 17.3311H111.32ZM110.847 10.452C110.575 10.452 110.339 10.5666 110.138 10.7959C109.937 11.0109 109.787 11.2689 109.687 11.5698C109.601 11.8565 109.558 12.1431 109.558 12.4297C109.558 12.7307 109.601 13.0317 109.687 13.3326C109.787 13.6193 109.937 13.8772 110.138 14.1065C110.339 14.3215 110.575 14.4362 110.847 14.4505H114.588C114.86 14.4362 115.097 14.3215 115.297 14.1065C115.498 13.8772 115.641 13.6193 115.727 13.3326C115.828 13.0317 115.878 12.7307 115.878 12.4297C115.878 12.1431 115.828 11.8565 115.727 11.5698C115.641 11.2689 115.498 11.0109 115.297 10.7959C115.097 10.5666 114.86 10.452 114.588 10.452H110.847Z" fill="#1A201B"/>
<path d="M124.082 17.9331C123.509 17.9331 123.028 17.7324 122.641 17.3311C122.269 16.9299 122.083 16.4283 122.083 15.8263C122.083 15.2244 122.269 14.7228 122.641 14.3215C123.028 13.9202 123.509 13.7196 124.082 13.7196C124.655 13.7196 125.135 13.9202 125.522 14.3215C125.909 14.7228 126.103 15.2244 126.103 15.8263C126.103 16.4283 125.909 16.9299 125.522 17.3311C125.135 17.7324 124.655 17.9331 124.082 17.9331Z" fill="#1A201B"/>
<path d="M131.046 4.30371C131.433 4.31804 131.763 4.46136 132.035 4.73366C132.308 4.99163 132.451 5.31409 132.465 5.70104V16.2348C132.379 17.0947 131.906 17.5604 131.046 17.6321C130.645 17.6321 130.294 17.5031 129.993 17.2452C129.706 16.9729 129.563 16.6361 129.563 16.2348V5.70104C129.577 5.29976 129.728 4.97013 130.015 4.71216C130.301 4.43986 130.645 4.30371 131.046 4.30371Z" fill="#1A201B"/>
<path d="M159.713 11.0109C159.713 10.6526 159.526 10.4663 159.154 10.452H154.301C154.029 10.4663 153.792 10.5881 153.592 10.8174C153.391 11.0324 153.24 11.2904 153.14 11.5913C153.054 11.878 153.011 12.1718 153.011 12.4727C153.011 12.7594 153.054 13.0532 153.14 13.3541C153.24 13.6408 153.391 13.8987 153.592 14.128C153.792 14.343 154.029 14.4505 154.301 14.4505H157.133C157.534 14.4505 157.871 14.5938 158.143 14.8804C158.43 15.1527 158.573 15.4895 158.573 15.8908C158.573 16.2921 158.43 16.6289 158.143 16.9012C157.871 17.1878 157.534 17.3311 157.133 17.3311H154.387C153.384 17.3168 152.553 17.0373 151.893 16.4927C151.248 15.9338 150.783 15.3104 150.496 14.6225C150.224 13.9202 150.087 13.1965 150.087 12.4512C150.087 11.7346 150.231 11.0324 150.517 10.3445C150.804 9.64224 151.27 9.01881 151.915 8.47421C152.56 7.91528 153.513 7.61431 154.774 7.57132H161.131C161.533 7.57132 161.877 7.70747 162.163 7.97977C162.45 8.23774 162.6 8.56736 162.615 8.96865V15.7618C162.615 16.9084 162.457 17.9904 162.142 19.0079C161.855 19.9108 161.382 20.6704 160.723 21.2867C160.078 21.9173 159.254 22.2612 158.251 22.3185H153.484C153.097 22.3042 152.767 22.1609 152.495 21.8886C152.237 21.6306 152.101 21.3082 152.087 20.9212C152.087 20.5199 152.216 20.176 152.474 19.8893C152.746 19.6027 153.083 19.4522 153.484 19.4379H157.52C158.064 19.4092 158.516 19.2014 158.874 18.8145C159.232 18.4275 159.462 17.9761 159.562 17.4601C159.662 16.9442 159.713 16.2778 159.713 15.4609V11.0109Z" fill="#1A201B"/>
<path d="M140.044 17.5434C138.783 17.5004 137.83 17.2066 137.185 16.662C136.54 16.1031 136.074 15.4797 135.788 14.7917C135.501 14.0895 135.358 13.3801 135.358 12.6635C135.358 11.9183 135.494 11.2017 135.766 10.5138C136.053 9.81151 136.519 9.18809 137.164 8.64349C137.823 8.08455 138.654 7.79792 139.657 7.78359H143.226C144.229 7.79792 145.053 8.08455 145.698 8.64349C146.357 9.18809 146.823 9.81151 147.095 10.5138C147.382 11.2017 147.525 11.9183 147.525 12.6635C147.525 13.3801 147.382 14.0895 147.095 14.7917C146.809 15.4797 146.343 16.1031 145.698 16.662C145.053 17.2066 144.1 17.5004 142.839 17.5434H140.044ZM139.571 10.6642C139.299 10.6642 139.063 10.7789 138.862 11.0082C138.661 11.2232 138.511 11.4811 138.411 11.7821C138.325 12.0687 138.282 12.3554 138.282 12.642C138.282 12.943 138.325 13.2439 138.411 13.5449C138.511 13.8315 138.661 14.0895 138.862 14.3188C139.063 14.5338 139.299 14.6484 139.571 14.6628H143.312C143.584 14.6484 143.821 14.5338 144.021 14.3188C144.222 14.0895 144.365 13.8315 144.451 13.5449C144.552 13.2439 144.602 12.943 144.602 12.642C144.602 12.3554 144.552 12.0687 144.451 11.7821C144.365 11.4811 144.222 11.2232 144.021 11.0082C143.821 10.7789 143.584 10.6642 143.312 10.6642H139.571Z" fill="#1A201B"/>
<path fill-rule="evenodd" clip-rule="evenodd" d="M17.5821 15.2986C18.1957 15.9349 18.957 16.2531 19.866 16.2531C20.775 16.2531 21.5363 15.9349 22.1499 15.2986C22.7635 14.6623 23.0703 13.8669 23.0703 12.9124C23.0703 11.9579 22.7635 11.1626 22.1499 10.5262C21.5363 9.88993 20.775 9.57178 19.866 9.57178C18.957 9.57178 18.1957 9.88993 17.5821 10.5262C16.9912 11.1626 16.6958 11.9579 16.6958 12.9124C16.6958 13.8669 16.9912 14.6623 17.5821 15.2986ZM20.2074 12.5626C20.4321 12.7956 20.7109 12.9122 21.0438 12.9122C21.3767 12.9122 21.6555 12.7956 21.8802 12.5626C22.1049 12.3296 22.2173 12.0383 22.2173 11.6887C22.2173 11.3392 22.1049 11.0479 21.8802 10.8149C21.6555 10.5818 21.3767 10.4653 21.0438 10.4653C20.7109 10.4653 20.4321 10.5818 20.2074 10.8149C19.991 11.0479 19.8828 11.3392 19.8828 11.6887C19.8828 12.0383 19.991 12.3296 20.2074 12.5626Z" fill="#1A201B"/>
<path d="M3.4484 1.29262C3.60605 1.02031 3.82819 0.834004 4.11482 0.733683C4.24381 0.690688 4.37279 0.66919 4.50178 0.66919C4.67376 0.66919 4.83857 0.705019 4.99622 0.776677C5.26852 0.89133 5.44766 1.08481 5.53365 1.35711C5.57665 1.47176 5.59814 1.58641 5.59814 1.70107C5.59814 1.85871 5.56232 2.01636 5.49066 2.17401C4.04317 5.06899 3.31942 8.26494 3.31942 11.7619C3.31942 15.2301 4.04317 18.4117 5.49066 21.3067C5.56232 21.4644 5.59814 21.622 5.59814 21.7796C5.59814 21.8943 5.57665 22.009 5.53365 22.1236C5.44766 22.3959 5.26852 22.5894 4.99622 22.704C4.83857 22.7757 4.67376 22.8115 4.50178 22.8115C4.37279 22.8115 4.24381 22.79 4.11482 22.747C3.81386 22.6467 3.59172 22.4604 3.4484 22.1881C0.660228 19.0249 0.201638 15.4594 0.201638 11.7619C0.201638 8.07863 0.660228 4.67892 3.4484 1.29262Z" fill="#1A201B"/>
<path d="M35.7044 1.29262C35.5468 1.02031 35.3246 0.834004 35.038 0.733683C34.909 0.690688 34.78 0.66919 34.6511 0.66919C34.4791 0.66919 34.3143 0.705019 34.1566 0.776677C33.8843 0.89133 33.7052 1.08481 33.6192 1.35711C33.5762 1.47176 33.5547 1.58641 33.5547 1.70107C33.5547 1.85871 33.5905 2.01636 33.6622 2.17401C35.1097 5.06899 35.8334 8.26494 35.8334 11.7619C35.8334 15.2301 35.1097 18.4117 33.6622 21.3067C33.5905 21.4644 33.5547 21.622 33.5547 21.7796C33.5547 21.8943 33.5762 22.009 33.6192 22.1236C33.7052 22.3959 33.8843 22.5894 34.1566 22.704C34.3143 22.7757 34.4791 22.8115 34.6511 22.8115C34.78 22.8115 34.909 22.79 35.038 22.747C35.339 22.6467 35.5611 22.4604 35.7044 22.1881C38.4926 19.0249 38.9512 15.4594 38.9512 11.7619C38.9512 8.07863 38.4926 4.67892 35.7044 1.29262Z" fill="#1A201B"/>
<path d="M8.55176 19.3308V7.44959H15.3724V4.14941H23.9532V7.44959H31.2138V19.3308H8.55176Z" stroke="#1A201B" stroke-width="2.44593" stroke-linejoin="round"/>
</svg>
