<svg width="143" height="82" viewBox="0 0 143 82" fill="none" xmlns="http://www.w3.org/2000/svg">
<circle cx="69.2559" cy="60.0679" r="4.79198" fill="#1A201B"/>
<path d="M59.9375 31.9258C64.7661 25.8716 69.9922 24.8878 75.6157 28.6524C81.2117 32.3986 79.8909 40.1768 73.6772 42.7726V42.7726C71.9852 43.4794 69.1535 45.9687 69.1535 47.8023V49.5265" stroke="#1A201B" stroke-width="7.39367" stroke-linecap="round" stroke-linejoin="round"/>
<path d="M12.6172 3.14123C13.1939 2.14509 14.0066 1.46352 15.0551 1.09653C15.527 0.93924 15.9988 0.860596 16.4707 0.860596C17.0998 0.860596 17.7027 0.991669 18.2795 1.25381C19.2756 1.67323 19.9309 2.38102 20.2455 3.37715C20.4028 3.79658 20.4814 4.216 20.4814 4.63543C20.4814 5.21214 20.3504 5.78886 20.0882 6.36557C14.793 16.9561 12.1453 28.6476 12.1453 41.4401C12.1453 54.1277 14.793 65.7668 20.0882 76.3573C20.3504 76.934 20.4814 77.5108 20.4814 78.0875C20.4814 78.5069 20.4028 78.9263 20.2455 79.3457C19.9309 80.3419 19.2756 81.0497 18.2795 81.4691C17.7027 81.7312 17.0998 81.8623 16.4707 81.8623C15.9988 81.8623 15.527 81.7837 15.0551 81.6264C13.9541 81.2594 13.1415 80.5778 12.6172 79.5817C2.41742 68.0098 0.739794 54.9666 0.739794 41.4401C0.739794 27.966 2.41742 15.5291 12.6172 3.14123Z" fill="#1A201B"/>
<path d="M130.616 3.14123C130.039 2.14509 129.227 1.46352 128.178 1.09653C127.706 0.93924 127.235 0.860596 126.763 0.860596C126.134 0.860596 125.531 0.991669 124.954 1.25381C123.958 1.67323 123.302 2.38102 122.988 3.37715C122.831 3.79658 122.752 4.216 122.752 4.63543C122.752 5.21214 122.883 5.78886 123.145 6.36557C128.44 16.9561 131.088 28.6476 131.088 41.4401C131.088 54.1277 128.44 65.7668 123.145 76.3573C122.883 76.934 122.752 77.5108 122.752 78.0875C122.752 78.5069 122.831 78.9263 122.988 79.3457C123.302 80.3419 123.958 81.0497 124.954 81.4691C125.531 81.7312 126.134 81.8623 126.763 81.8623C127.235 81.8623 127.706 81.7837 128.178 81.6264C129.279 81.2594 130.092 80.5778 130.616 79.5817C140.816 68.0098 142.494 54.9666 142.494 41.4401C142.494 27.966 140.816 15.5291 130.616 3.14123Z" fill="#1A201B"/>
</svg>
