<svg width="60" height="61" viewBox="0 0 60 61" fill="none" xmlns="http://www.w3.org/2000/svg">
<circle cx="30" cy="30.1807" r="30" fill="#1A201B"/>
<path d="M13.8757 39.7949V25.3929C13.8757 24.5714 14.5417 23.9055 15.3631 23.9055H22.3638C23.1853 23.9055 23.8512 23.2396 23.8512 22.4181V20.5662C23.8512 19.7448 24.5171 19.0789 25.3386 19.0789H34.9136C35.735 19.0789 36.401 19.7448 36.401 20.5662V22.4181C36.401 23.2396 37.0669 23.9055 37.8883 23.9055H45.5326C46.3541 23.9055 47.02 24.5714 47.02 25.3929V39.7949C47.02 40.6164 46.3541 41.2823 45.5326 41.2823H15.3631C14.5417 41.2823 13.8757 40.6164 13.8757 39.7949Z" fill="white"/>
<path d="M30.4257 36.2912C29.2298 36.2912 28.2282 35.8726 27.4209 35.0354C26.6436 34.1983 26.2549 33.1518 26.2549 31.8961C26.2549 30.6403 26.6436 29.5939 27.4209 28.7567C28.2282 27.9196 29.2298 27.501 30.4257 27.501C31.6217 27.501 32.6233 27.9196 33.4306 28.7567C34.2378 29.5939 34.6415 30.6403 34.6415 31.8961C34.6415 33.1518 34.2378 34.1983 33.4306 35.0354C32.6233 35.8726 31.6217 36.2912 30.4257 36.2912Z" fill="#1A201B"/>
<path d="M31.9752 31.8952C31.5372 31.8952 31.1704 31.7419 30.8748 31.4353C30.5901 31.1287 30.4478 30.7455 30.4478 30.2856C30.4478 29.8257 30.5901 29.4425 30.8748 29.1359C31.1704 28.8293 31.5372 28.676 31.9752 28.676C32.4132 28.676 32.78 28.8293 33.0756 29.1359C33.3713 29.4425 33.5191 29.8257 33.5191 30.2856C33.5191 30.7455 33.3713 31.1287 33.0756 31.4353C32.78 31.7419 32.4132 31.8952 31.9752 31.8952Z" fill="white"/>
<path d="M6.41194 14.9002C6.6425 14.5019 6.96739 14.2294 7.38661 14.0827C7.57525 14.0198 7.7639 13.9884 7.95254 13.9884C8.20407 13.9884 8.44512 14.0408 8.67568 14.1456C9.07394 14.3133 9.33594 14.5963 9.46171 14.9945C9.52459 15.1622 9.55603 15.3299 9.55603 15.4976C9.55603 15.7281 9.50363 15.9587 9.39883 16.1893C7.2818 20.4233 6.22329 25.0975 6.22329 30.2119C6.22329 35.2844 7.2818 39.9376 9.39883 44.1717C9.50363 44.4023 9.55603 44.6328 9.55603 44.8634C9.55603 45.0311 9.52459 45.1988 9.46171 45.3664C9.33594 45.7647 9.07394 46.0477 8.67568 46.2154C8.44512 46.3202 8.20407 46.3726 7.95254 46.3726C7.7639 46.3726 7.57525 46.3411 7.38661 46.2782C6.94643 46.1315 6.62154 45.859 6.41194 45.4608C2.3341 40.8344 1.6634 35.6198 1.6634 30.2119C1.6634 24.825 2.3341 19.8528 6.41194 14.9002Z" fill="white"/>
<path d="M53.5879 14.9002C53.3574 14.5019 53.0325 14.2294 52.6133 14.0827C52.4246 14.0198 52.236 13.9884 52.0473 13.9884C51.7958 13.9884 51.5548 14.0408 51.3242 14.1456C50.9259 14.3133 50.6639 14.5963 50.5382 14.9945C50.4753 15.1622 50.4438 15.3299 50.4438 15.4976C50.4438 15.7281 50.4962 15.9587 50.6011 16.1893C52.7181 20.4233 53.7766 25.0975 53.7766 30.2119C53.7766 35.2844 52.7181 39.9376 50.6011 44.1717C50.4962 44.4023 50.4438 44.6328 50.4438 44.8634C50.4438 45.0311 50.4753 45.1988 50.5382 45.3664C50.6639 45.7647 50.9259 46.0477 51.3242 46.2154C51.5548 46.3202 51.7958 46.3726 52.0473 46.3726C52.236 46.3726 52.4246 46.3411 52.6133 46.2782C53.0534 46.1315 53.3783 45.859 53.5879 45.4608C57.6658 40.8344 58.3365 35.6198 58.3365 30.2119C58.3365 24.825 57.6658 19.8528 53.5879 14.9002Z" fill="white"/>
</svg>
